<?xml version="1.0" standalone="no"?>
<!DOCTYPE svg PUBLIC "-//W3C//DTD SVG 20010904//EN"
 "http://www.w3.org/TR/2001/REC-SVG-20010904/DTD/svg10.dtd">
<svg version="1.0" xmlns="http://www.w3.org/2000/svg"
 width="225.000000pt" height="225.000000pt" viewBox="0 0 225.000000 225.000000"
 preserveAspectRatio="xMidYMid meet" >
<metadata>
Created by potrace 1.10, written by Peter Selinger 2001-2011
</metadata>
<g transform="translate(0.000000,225.000000) scale(0.100000,-0.100000)"
fill="#C7AF9F" stroke="none">
<path d="M1026 1740 c-11 -28 -13 -46 -6 -58 5 -9 16 -96 25 -192 15 -164 18
-177 42 -202 15 -15 28 -26 30 -25 1 2 -6 75 -17 163 -11 87 -20 161 -20 164
0 3 11 -8 24 -25 13 -16 26 -28 29 -25 6 6 -71 220 -83 233 -4 5 -15 -10 -24
-33z"/>
<path d="M1145 1731 c-6 -26 -3 -35 18 -51 13 -11 34 -43 47 -72 19 -44 21
-64 17 -123 -3 -38 -9 -81 -13 -94 -5 -16 -4 -22 4 -17 18 11 44 147 37 196
-9 62 -41 133 -75 165 l-28 27 -7 -31z"/>
<path d="M1320 1725 c-9 -27 -8 -75 5 -217 24 -260 31 -588 15 -628 -20 -47
-128 -139 -234 -199 -53 -30 -94 -56 -92 -59 12 -12 191 43 234 72 53 36 107
110 123 169 l11 41 13 -29 c20 -48 78 -93 131 -101 114 -17 263 26 285 83 24
58 1 202 -36 233 -11 9 -16 4 -25 -31 -11 -38 -9 -46 14 -89 14 -26 26 -54 26
-63 0 -38 -174 -70 -257 -48 -49 14 -98 65 -112 118 -5 21 -15 112 -21 203
-29 437 -44 580 -61 580 -4 0 -13 -16 -19 -35z"/>
<path d="M1504 1747 c-8 -14 -5 -30 13 -64 30 -60 29 -105 -3 -193 -28 -79
-26 -115 8 -126 31 -10 70 37 66 80 -2 25 -8 32 -30 34 -16 2 -28 4 -28 5 0 1
7 20 15 42 21 60 18 132 -8 190 -20 43 -25 47 -33 32z m56 -312 c15 -18 5 -35
-21 -35 -24 0 -37 29 -18 41 19 12 25 11 39 -6z"/>
<path d="M784 1575 c-5 -28 -2 -41 13 -58 10 -12 36 -49 58 -82 22 -33 104
-124 181 -202 78 -77 160 -165 182 -195 41 -55 72 -129 72 -176 1 -24 2 -25
12 -8 6 12 8 45 5 89 -9 99 -42 149 -241 353 -93 96 -175 183 -183 194 -13 19
-13 19 12 10 53 -20 42 -4 -44 64 l-60 47 -7 -36z"/>
<path d="M1776 1553 c-7 -16 -17 -48 -21 -73 l-8 -45 -9 35 c-12 43 -45 90
-63 90 -8 0 -17 -9 -20 -21 -5 -15 -1 -25 17 -37 12 -9 26 -16 30 -15 9 3 28
-55 28 -89 0 -42 -77 -112 -181 -167 -96 -51 -94 -49 -87 -57 13 -13 154 53
199 94 65 58 87 98 103 182 16 83 30 104 51 77 13 -18 14 -17 20 3 7 23 -9 50
-31 50 -7 0 -20 -12 -28 -27z"/>
<path d="M636 1491 c-31 -71 -33 -102 -5 -127 21 -19 21 -18 45 9 13 16 24 36
23 45 0 14 -3 13 -16 -5 -19 -28 -29 -29 -43 -4 -10 20 -9 26 24 104 27 61 1
42 -28 -22z"/>
<path d="M456 1323 c-45 -97 -50 -115 -50 -181 -1 -64 2 -76 21 -91 l21 -18
-19 -54 c-27 -78 -25 -182 4 -239 48 -96 158 -142 285 -120 144 25 333 125
380 202 28 45 42 139 35 232 -5 66 -9 78 -35 103 l-30 28 6 -35 c3 -19 11 -84
17 -145 l10 -110 -33 -27 c-50 -41 -174 -103 -258 -129 -148 -45 -268 -26
-333 51 -51 60 -44 190 13 257 16 17 31 46 35 65 3 18 9 41 11 51 9 30 -14 18
-25 -13 -11 -33 -40 -40 -61 -15 -20 24 -6 111 30 187 17 37 30 76 28 88 -2
13 -20 -17 -52 -87z"/>
<path d="M790 1330 c-11 -11 -23 -32 -26 -47 -6 -22 -2 -31 26 -54 l32 -27
-48 -53 c-46 -48 -169 -153 -224 -190 -14 -9 -22 -19 -19 -23 17 -18 235 156
287 229 20 29 21 29 35 11 13 -18 14 -18 21 9 4 15 3 32 -2 37 -5 5 -7 29 -4
54 7 69 -34 98 -78 54z m48 -65 c-3 -16 -5 -15 -28 4 -21 17 -23 22 -10 30 19
13 43 -9 38 -34z"/>
<path d="M1597 1113 c-15 -33 -27 -73 -27 -87 0 -35 17 -66 35 -66 18 0 45 39
44 65 0 18 -1 18 -10 -3 -10 -26 -27 -25 -43 1 -7 12 -4 30 13 71 32 77 21 93
-12 19z"/>
<path d="M839 1019 c-42 -84 -43 -140 -3 -156 21 -8 54 30 53 61 0 20 -1 20
-10 -2 -11 -30 -43 -25 -47 7 -2 12 6 45 18 73 27 62 19 75 -11 17z"/>
<path d="M1371 694 c-11 -15 -21 -34 -20 -43 0 -11 4 -9 11 7 13 26 21 27 38
7 11 -13 9 -25 -10 -71 -30 -75 -20 -79 14 -5 31 70 32 92 7 115 -18 16 -20
16 -40 -10z"/>
<path d="M1571 686 c-12 -18 -21 -36 -21 -38 0 -3 18 -17 39 -31 l39 -26 22
36 22 37 -34 28 c-18 15 -36 28 -40 28 -3 0 -16 -15 -27 -34z"/>
<path d="M1640 557 c-63 -28 -118 -56 -122 -62 -21 -29 -1 -29 60 0 37 17 93
42 124 55 34 14 58 30 61 42 3 10 2 18 -1 17 -4 -1 -59 -24 -122 -52z"/>
</g>
</svg>
